<svg xmlns="http://www.w3.org/2000/svg" width="30" height="30" viewBox="0 0 30 30" fill="none">
<g id="TB_Logo 1">
<g id="Group">
<path id="Vector" d="M23.7753 12.1011L18.6517 15.0674L23.4157 17.809L27.5506 15.427C27.6546 15.3745 27.742 15.2942 27.803 15.195C27.8641 15.0959 27.8964 14.9817 27.8964 14.8652C27.8964 14.7487 27.8641 14.6345 27.803 14.5353C27.742 14.4361 27.6546 14.3558 27.5506 14.3034L23.7753 12.1011Z" fill="#10727F"/>
<path id="Vector_2" d="M4.13484 12.0112L0.359556 14.1685C0.255557 14.221 0.16816 14.3013 0.107097 14.4005C0.0460341 14.4997 0.0137024 14.6139 0.0137024 14.7303C0.0137024 14.8468 0.0460341 14.961 0.107097 15.0602C0.16816 15.1594 0.255557 15.2397 0.359556 15.2921L4.49439 17.6742L9.25843 14.9326L4.13484 12.0112Z" fill="#10727F"/>
<path id="Vector_3" d="M4.49439 17.7191L0.359556 20.1011C0.255557 20.1536 0.16816 20.2339 0.107097 20.3331C0.0460341 20.4323 0.0137024 20.5465 0.0137024 20.6629C0.0137024 20.7794 0.0460341 20.8936 0.107097 20.9928C0.16816 21.092 0.255557 21.1723 0.359556 21.2247L13.6629 28.9101C13.7637 28.9741 13.8806 29.008 14 29.008C14.1194 29.008 14.2363 28.9741 14.3371 28.9101L27.5506 21.2697C27.6546 21.2172 27.742 21.1369 27.803 21.0377C27.8641 20.9386 27.8964 20.8244 27.8964 20.7079C27.8964 20.5914 27.8641 20.4772 27.803 20.378C27.742 20.2788 27.6546 20.1985 27.5506 20.1461L23.4157 17.809L14.3371 23.0225C14.2363 23.0864 14.1194 23.1204 14 23.1204C13.8806 23.1204 13.7637 23.0864 13.6629 23.0225L4.49439 17.7191Z" fill="#306092"/>
<path id="Vector_4" d="M14.0225 17.7191L9.25843 14.9775L4.49438 17.7191L13.6629 23.0225C13.7637 23.0864 13.8806 23.1204 14 23.1204C14.1194 23.1204 14.2363 23.0864 14.3371 23.0225L23.4157 17.809L18.6517 15.0674L14.0225 17.7191Z" fill="#1DB2B0"/>
<path id="Vector_5" d="M23.7753 12.1011L27.5506 9.94383C27.6546 9.89137 27.742 9.81108 27.803 9.71189C27.8641 9.6127 27.8964 9.49851 27.8964 9.38203C27.8964 9.26555 27.8641 9.15136 27.803 9.05217C27.742 8.95298 27.6546 8.87269 27.5506 8.82023L14.2472 1.0899C14.1464 1.02595 14.0295 0.991989 13.9101 0.991989C13.7907 0.991989 13.6738 1.02595 13.573 1.0899L0.359556 8.73034C0.255557 8.7828 0.16816 8.86309 0.107097 8.96228C0.0460341 9.06147 0.0137024 9.17566 0.0137024 9.29214C0.0137024 9.40862 0.0460341 9.52281 0.107097 9.622C0.16816 9.72119 0.255557 9.80149 0.359556 9.85394L4.13484 12.0112L13.573 6.57304C13.6738 6.50909 13.7907 6.47514 13.9101 6.47514C14.0295 6.47514 14.1464 6.50909 14.2472 6.57304L23.7753 12.1011Z" fill="#306092"/>
<path id="Vector_6" d="M13.9326 12.3258L18.6966 15.0674L23.8202 12.1011L14.2472 6.57303C14.1464 6.50908 14.0295 6.47513 13.9101 6.47513C13.7907 6.47513 13.6738 6.50908 13.573 6.57303L4.13483 12.0112L9.25842 14.9775L13.9326 12.3258Z" fill="#1DB2B0"/>
<path id="Vector_7" d="M9.25842 14.9775L13.9775 17.7191L18.6517 15.0225L13.8876 12.3259L9.25842 14.9775Z" fill="#A6FFFB"/>
</g>

</g>
</svg>